<svg width="256" height="256" viewBox="0 0 256 256" fill="none" xmlns="http://www.w3.org/2000/svg" role="img" aria-labelledby="title desc">
  <title id="title">Skaal cut rail logo</title>
  <desc id="desc">An angular rail symbol with cut ends facing the selected endpoint.</desc>
  <rect width="256" height="256" rx="48" fill="#F6FBF9"/>
  <path d="M79 86.11C79 78.39 85.26 72.14 92.97 72.14H101.2C104.91 72.14 108.48 73.61 111.1 76.23L133.9 99.03C136.52 101.65 139 103.12 142.71 103.12H167.54C175.26 103.12 181.51 109.38 181.51 117.09C181.51 124.81 175.26 131.06 167.54 131.06H142.2C136.33 131.06 130.69 128.73 126.55 124.59L103.97 102.01L91.22 114.76C85.51 120.47 76.29 120.47 70.58 114.76C64.87 109.05 64.87 99.83 70.58 94.12L90.51 74.19" fill="#0E1726"/>
  <path d="M79 169.89C79 177.61 85.26 183.86 92.97 183.86H101.2C104.91 183.86 108.48 182.39 111.1 179.77L133.9 156.97C136.52 154.35 139 152.88 142.71 152.88H167.54C175.26 152.88 181.51 146.62 181.51 138.91C181.51 131.19 175.26 124.94 167.54 124.94H142.2C136.33 124.94 130.69 127.27 126.55 131.41L103.97 153.99L91.22 141.24C85.51 135.53 76.29 135.53 70.58 141.24C64.87 146.95 64.87 156.17 70.58 161.88L90.51 181.81" fill="#0E1726"/>
  <circle cx="196" cy="128" r="16" fill="#9AE66E"/>
</svg>
