<svg width="1180" height="220" viewBox="0 0 1180 220" fill="none" xmlns="http://www.w3.org/2000/svg" role="img" aria-labelledby="title desc">
  <title id="title">Skaal iconography overview</title>
  <desc id="desc">Overview of the Skaal product icon set for constraints, planning, storage, deploy, and target flows.</desc>
  <rect width="1180" height="220" rx="28" fill="#F6FBF9"/>
  <text x="36" y="48" fill="#0E1726" font-family="'IBM Plex Sans', 'Segoe UI', sans-serif" font-size="30" font-weight="700">Iconography</text>
  <g transform="translate(30 84)">
    <rect width="74" height="74" rx="18" fill="#FFFFFF" stroke="#E5ECF2"/><rect x="11" y="12" width="10" height="10" rx="2" stroke="#0E1726" stroke-width="2.4"/><path d="M28 17H44" stroke="#0E1726" stroke-width="2.4" stroke-linecap="round"/><rect x="11" y="28" width="10" height="10" rx="2" stroke="#13B5A8" stroke-width="2.4"/><path d="M28 33H38" stroke="#0E1726" stroke-width="2.4" stroke-linecap="round"/><rect x="11" y="44" width="10" height="10" rx="2" stroke="#9AE66E" stroke-width="2.4"/><path d="M28 49H42" stroke="#0E1726" stroke-width="2.4" stroke-linecap="round"/><text x="10" y="98" fill="#0E1726" font-family="'IBM Plex Sans', 'Segoe UI', sans-serif" font-size="14" font-weight="600">Constraints</text>
  </g>
  <g transform="translate(124 84)">
    <rect width="74" height="74" rx="18" fill="#FFFFFF" stroke="#E5ECF2"/><circle cx="37" cy="37" r="3.5" fill="#13B5A8"/><circle cx="37" cy="17" r="3" stroke="#0E1726" stroke-width="2"/><circle cx="55" cy="27" r="3" stroke="#0E1726" stroke-width="2"/><circle cx="57" cy="45" r="3" stroke="#0E1726" stroke-width="2"/><circle cx="46" cy="58" r="3" stroke="#0E1726" stroke-width="2"/><circle cx="20" cy="56" r="3" stroke="#13B5A8" stroke-width="2"/><circle cx="16" cy="37" r="3" stroke="#13B5A8" stroke-width="2"/><circle cx="22" cy="20" r="3" stroke="#0E1726" stroke-width="2"/><path d="M37 20V29M40 35L52 29M40 39L52 45M34.5 40.5L25 52M31.5 35L19 37M32 31L24 22.5" stroke="#0E1726" stroke-width="2" stroke-linecap="round"/><text x="20" y="98" fill="#0E1726" font-family="'IBM Plex Sans', 'Segoe UI', sans-serif" font-size="14" font-weight="600">Solver</text>
  </g>
  <g transform="translate(218 84)">
    <rect width="74" height="74" rx="18" fill="#FFFFFF" stroke="#E5ECF2"/><rect x="12" y="14" width="8" height="8" rx="2" stroke="#13B5A8" stroke-width="2"/><rect x="32" y="14" width="8" height="8" rx="2" stroke="#0E1726" stroke-width="2"/><rect x="52" y="14" width="8" height="8" rx="2" stroke="#13B5A8" stroke-width="2"/><rect x="32" y="46" width="8" height="8" rx="2" stroke="#0E1726" stroke-width="2"/><rect x="52" y="46" width="8" height="8" rx="2" stroke="#13B5A8" stroke-width="2"/><path d="M16 22V34C16 38 19 40 22 40H32M36 22V43M56 22V31C56 36 53 38 50 38H40" stroke="#0E1726" stroke-width="2" stroke-linecap="round"/><text x="4" y="98" fill="#0E1726" font-family="'IBM Plex Sans', 'Segoe UI', sans-serif" font-size="14" font-weight="600">Plan Graph</text>
  </g>
  <g transform="translate(312 84)">
    <rect width="74" height="74" rx="18" fill="#FFFFFF" stroke="#E5ECF2"/><circle cx="16" cy="52" r="4" fill="#13B5A8"/><circle cx="37" cy="34" r="4" fill="#FFFFFF" stroke="#0E1726" stroke-width="2"/><circle cx="58" cy="16" r="4" fill="#FFFFFF" stroke="#0E1726" stroke-width="2"/><path d="M16 52L37 34L58 16" stroke="#9AE66E" stroke-width="2.5" stroke-linecap="round"/><text x="-1" y="98" fill="#0E1726" font-family="'IBM Plex Sans', 'Segoe UI', sans-serif" font-size="14" font-weight="600">Selected Route</text>
  </g>
  <g transform="translate(406 84)">
    <rect width="74" height="74" rx="18" fill="#FFFFFF" stroke="#E5ECF2"/><rect x="16" y="16" width="42" height="42" rx="8" stroke="#0E1726" stroke-width="2.4"/><path d="M37 24L46 29V39L37 44L28 39V29L37 24Z" stroke="#13B5A8" stroke-width="2.2"/><text x="14" y="98" fill="#0E1726" font-family="'IBM Plex Sans', 'Segoe UI', sans-serif" font-size="14" font-weight="600">Compute</text>
  </g>
  <g transform="translate(500 84)">
    <rect width="74" height="74" rx="18" fill="#FFFFFF" stroke="#E5ECF2"/><ellipse cx="37" cy="20" rx="18" ry="7" stroke="#0E1726" stroke-width="2.4"/><path d="M19 20V49C19 53 27 56 37 56C47 56 55 53 55 49V20" stroke="#0E1726" stroke-width="2.4"/><path d="M19 35C19 39 27 42 37 42C47 42 55 39 55 35" stroke="#0E1726" stroke-width="2.4"/><text x="16" y="98" fill="#0E1726" font-family="'IBM Plex Sans', 'Segoe UI', sans-serif" font-size="14" font-weight="600">Storage</text>
  </g>
  <g transform="translate(594 84)">
    <rect width="74" height="74" rx="18" fill="#FFFFFF" stroke="#E5ECF2"/><path d="M22 53C15 53 10 48 10 41.5C10 36 14 31 19.5 29.8C22 24.5 27 21 33 21C41 21 47 27.5 47.5 35.2C52 36 56 40 56 45.3C56 50 52 53.5 47 53.5H22Z" stroke="#0E1726" stroke-width="2.4" stroke-linejoin="round"/><circle cx="43" cy="46" r="3" fill="#13B5A8"/><text x="23" y="98" fill="#0E1726" font-family="'IBM Plex Sans', 'Segoe UI', sans-serif" font-size="14" font-weight="600">Blob</text>
  </g>
  <g transform="translate(688 84)">
    <rect width="74" height="74" rx="18" fill="#FFFFFF" stroke="#E5ECF2"/><ellipse cx="37" cy="20" rx="18" ry="7" stroke="#0E1726" stroke-width="2.4"/><path d="M19 20V49C19 53 27 56 37 56C47 56 55 53 55 49V20" stroke="#0E1726" stroke-width="2.4"/><path d="M19 28C19 32 27 35 37 35C47 35 55 32 55 28" stroke="#13B5A8" stroke-width="2.4"/><path d="M19 35C19 39 27 42 37 42C47 42 55 39 55 35" stroke="#9AE66E" stroke-width="2.4"/><text x="9" y="98" fill="#0E1726" font-family="'IBM Plex Sans', 'Segoe UI', sans-serif" font-size="14" font-weight="600">Database</text>
  </g>
  <g transform="translate(782 84)">
    <rect width="74" height="74" rx="18" fill="#FFFFFF" stroke="#E5ECF2"/><circle cx="37" cy="37" r="3.5" fill="#13B5A8"/><circle cx="37" cy="17" r="3" stroke="#0E1726" stroke-width="2"/><circle cx="56" cy="28" r="3" stroke="#0E1726" stroke-width="2"/><circle cx="48" cy="55" r="3" stroke="#0E1726" stroke-width="2"/><circle cx="20" cy="52" r="3" stroke="#13B5A8" stroke-width="2"/><circle cx="15" cy="28" r="3" stroke="#13B5A8" stroke-width="2"/><path d="M37 20V29M40 34L53 29M39.5 40L46 52M33 40L22 49M33 34L18 29" stroke="#0E1726" stroke-width="2" stroke-linecap="round"/><text x="18" y="98" fill="#0E1726" font-family="'IBM Plex Sans', 'Segoe UI', sans-serif" font-size="14" font-weight="600">Vector</text>
  </g>
  <g transform="translate(876 84)">
    <rect width="74" height="74" rx="18" fill="#FFFFFF" stroke="#E5ECF2"/><rect x="14" y="16" width="46" height="38" rx="7" stroke="#0E1726" stroke-width="2.4"/><path d="M22 12V20M52 12V20M14 26H60M22 38L28 44L39 34" stroke="#0E1726" stroke-width="2.4" stroke-linecap="round" stroke-linejoin="round"/><circle cx="50" cy="41" r="2.8" fill="#9AE66E"/><text x="8" y="98" fill="#0E1726" font-family="'IBM Plex Sans', 'Segoe UI', sans-serif" font-size="14" font-weight="600">Schedule</text>
  </g>
  <g transform="translate(970 84)">
    <rect width="74" height="74" rx="18" fill="#FFFFFF" stroke="#E5ECF2"/><path d="M37 50V16" stroke="#0E1726" stroke-width="2.6" stroke-linecap="round"/><path d="M27 26L37 16L47 26" stroke="#0E1726" stroke-width="2.6" stroke-linecap="round" stroke-linejoin="round"/><path d="M18 56H56" stroke="#0E1726" stroke-width="2.6" stroke-linecap="round"/><circle cx="37" cy="42" r="3" fill="#13B5A8"/><text x="20" y="98" fill="#0E1726" font-family="'IBM Plex Sans', 'Segoe UI', sans-serif" font-size="14" font-weight="600">Deploy</text>
  </g>
  <g transform="translate(1064 84)">
    <rect width="74" height="74" rx="18" fill="#FFFFFF" stroke="#E5ECF2"/><circle cx="37" cy="37" r="18" stroke="#0E1726" stroke-width="2.4"/><circle cx="37" cy="37" r="5" fill="#13B5A8"/><path d="M37 13V19M37 55V61M13 37H19M55 37H61" stroke="#0E1726" stroke-width="2.4" stroke-linecap="round"/><text x="21" y="98" fill="#0E1726" font-family="'IBM Plex Sans', 'Segoe UI', sans-serif" font-size="14" font-weight="600">Target</text>
  </g>
</svg>
