<svg width="0" height="0" viewBox="0 0 0 0" fill="none" xmlns="http://www.w3.org/2000/svg">
  <defs>
    <symbol id="constraints" viewBox="0 0 48 48">
      <rect x="7" y="8" width="10" height="10" rx="2" stroke="#0E1726" stroke-width="2.4"/>
      <path d="M24 13H40" stroke="#0E1726" stroke-width="2.4" stroke-linecap="round"/>
      <rect x="7" y="19" width="10" height="10" rx="2" stroke="#13B5A8" stroke-width="2.4"/>
      <path d="M24 24H34" stroke="#0E1726" stroke-width="2.4" stroke-linecap="round"/>
      <rect x="7" y="30" width="10" height="10" rx="2" stroke="#9AE66E" stroke-width="2.4"/>
      <path d="M24 35H37" stroke="#0E1726" stroke-width="2.4" stroke-linecap="round"/>
    </symbol>
    <symbol id="solver" viewBox="0 0 48 48">
      <circle cx="24" cy="24" r="3.5" fill="#13B5A8"/>
      <circle cx="24" cy="8" r="3" stroke="#0E1726" stroke-width="2"/>
      <circle cx="38" cy="16" r="3" stroke="#0E1726" stroke-width="2"/>
      <circle cx="40" cy="30" r="3" stroke="#0E1726" stroke-width="2"/>
      <circle cx="30" cy="40" r="3" stroke="#0E1726" stroke-width="2"/>
      <circle cx="16" cy="38" r="3" stroke="#13B5A8" stroke-width="2"/>
      <circle cx="8" cy="24" r="3" stroke="#13B5A8" stroke-width="2"/>
      <circle cx="12" cy="10" r="3" stroke="#0E1726" stroke-width="2"/>
      <path d="M24 11V20M27 22L35 18M27.2 26L36 29M23 27.5L18 35M20 22L10.5 23.5M21 20L14 12.5" stroke="#0E1726" stroke-width="2" stroke-linecap="round"/>
    </symbol>
    <symbol id="plan-graph" viewBox="0 0 48 48">
      <rect x="6" y="9" width="8" height="8" rx="2" stroke="#13B5A8" stroke-width="2"/>
      <rect x="18" y="9" width="8" height="8" rx="2" stroke="#0E1726" stroke-width="2"/>
      <rect x="30" y="9" width="8" height="8" rx="2" stroke="#13B5A8" stroke-width="2"/>
      <rect x="18" y="30" width="8" height="8" rx="2" stroke="#0E1726" stroke-width="2"/>
      <rect x="30" y="30" width="8" height="8" rx="2" stroke="#13B5A8" stroke-width="2"/>
      <path d="M10 17V25C10 28.31 12.69 31 16 31H18M22 17V28M34 17V24C34 27.31 31.31 30 28 30H26" stroke="#0E1726" stroke-width="2" stroke-linecap="round"/>
    </symbol>
    <symbol id="selected-route" viewBox="0 0 48 48">
      <circle cx="11" cy="34" r="4" fill="#13B5A8"/>
      <circle cx="24" cy="22" r="4" fill="#F6FBF9" stroke="#0E1726" stroke-width="2"/>
      <circle cx="37" cy="10" r="4" fill="#F6FBF9" stroke="#0E1726" stroke-width="2"/>
      <path d="M11 34L24 22L37 10" stroke="#9AE66E" stroke-width="2.5" stroke-linecap="round"/>
    </symbol>
    <symbol id="compute" viewBox="0 0 48 48">
      <rect x="10" y="10" width="28" height="28" rx="6" stroke="#0E1726" stroke-width="2.4"/>
      <path d="M24 16L30 20V28L24 32L18 28V20L24 16Z" stroke="#13B5A8" stroke-width="2.2"/>
    </symbol>
    <symbol id="storage" viewBox="0 0 48 48">
      <ellipse cx="24" cy="12" rx="13" ry="5.5" stroke="#0E1726" stroke-width="2.4"/>
      <path d="M11 12V32C11 35.04 16.82 37.5 24 37.5C31.18 37.5 37 35.04 37 32V12" stroke="#0E1726" stroke-width="2.4"/>
      <path d="M11 22C11 25.04 16.82 27.5 24 27.5C31.18 27.5 37 25.04 37 22" stroke="#0E1726" stroke-width="2.4"/>
    </symbol>
    <symbol id="blob" viewBox="0 0 48 48">
      <path d="M15 33C9.48 33 5 28.52 5 23C5 18.25 8.31 14.28 12.75 13.26C14.73 8.93 19.09 6 24.13 6C31.03 6 36.7 11.42 37.09 18.23C41.15 18.99 44.22 22.56 44.22 26.84C44.22 31.68 40.29 35.6 35.46 35.6H15Z" stroke="#0E1726" stroke-width="2.4" stroke-linejoin="round"/>
      <circle cx="31" cy="28" r="2.8" fill="#13B5A8"/>
    </symbol>
    <symbol id="database" viewBox="0 0 48 48">
      <ellipse cx="24" cy="12" rx="13" ry="5.5" stroke="#0E1726" stroke-width="2.4"/>
      <path d="M11 12V32C11 35.04 16.82 37.5 24 37.5C31.18 37.5 37 35.04 37 32V12" stroke="#0E1726" stroke-width="2.4"/>
      <path d="M11 22C11 25.04 16.82 27.5 24 27.5C31.18 27.5 37 25.04 37 22" stroke="#13B5A8" stroke-width="2.4"/>
      <path d="M11 17C11 20.04 16.82 22.5 24 22.5C31.18 22.5 37 20.04 37 17" stroke="#9AE66E" stroke-width="2.4"/>
    </symbol>
    <symbol id="vector" viewBox="0 0 48 48">
      <circle cx="24" cy="24" r="3.5" fill="#13B5A8"/>
      <circle cx="24" cy="8" r="3" stroke="#0E1726" stroke-width="2"/>
      <circle cx="39" cy="18" r="3" stroke="#0E1726" stroke-width="2"/>
      <circle cx="33" cy="38" r="3" stroke="#0E1726" stroke-width="2"/>
      <circle cx="12" cy="36" r="3" stroke="#13B5A8" stroke-width="2"/>
      <circle cx="8" cy="18" r="3" stroke="#13B5A8" stroke-width="2"/>
      <path d="M24 11V20M27 21L36 18M26.5 27L31.5 35M20 27L14.5 33.5M20.5 21L11 18.5" stroke="#0E1726" stroke-width="2" stroke-linecap="round"/>
    </symbol>
    <symbol id="schedule" viewBox="0 0 48 48">
      <rect x="8" y="10" width="32" height="28" rx="5" stroke="#0E1726" stroke-width="2.4"/>
      <path d="M16 6V14M32 6V14M8 18H40M16 27L21 31L31 22" stroke="#0E1726" stroke-width="2.4" stroke-linecap="round" stroke-linejoin="round"/>
      <circle cx="34" cy="29" r="2.5" fill="#9AE66E"/>
    </symbol>
    <symbol id="deploy" viewBox="0 0 48 48">
      <path d="M24 36V10" stroke="#0E1726" stroke-width="2.6" stroke-linecap="round"/>
      <path d="M16 18L24 10L32 18" stroke="#0E1726" stroke-width="2.6" stroke-linecap="round" stroke-linejoin="round"/>
      <path d="M10 38H38" stroke="#0E1726" stroke-width="2.6" stroke-linecap="round"/>
      <circle cx="24" cy="30" r="3" fill="#13B5A8"/>
    </symbol>
    <symbol id="target" viewBox="0 0 48 48">
      <circle cx="24" cy="24" r="13" stroke="#0E1726" stroke-width="2.4"/>
      <circle cx="24" cy="24" r="4" fill="#13B5A8"/>
      <path d="M24 5V11M24 37V43M5 24H11M37 24H43" stroke="#0E1726" stroke-width="2.4" stroke-linecap="round"/>
    </symbol>
  </defs>
</svg>
