<svg width="320" height="248" viewBox="0 0 320 248" fill="none" xmlns="http://www.w3.org/2000/svg" role="img" aria-labelledby="title">
  <title id="title">Skaal status signals</title>
  <rect width="320" height="248" rx="24" fill="#F6FBF9"/>
  <g transform="translate(20 20)"><rect width="280" height="36" rx="14" fill="#EFFBEA" stroke="#CDEFC0"/><circle cx="18" cy="18" r="8" fill="#9AE66E"/><path d="M14 18L17 21L23 15" stroke="#0E1726" stroke-width="2" stroke-linecap="round" stroke-linejoin="round"/><text x="38" y="23" fill="#3A7C28" font-family="'IBM Plex Sans', 'Segoe UI', sans-serif" font-size="14" font-weight="700">Plan Resolved</text></g>
  <g transform="translate(20 66)"><rect width="280" height="36" rx="14" fill="#EEF5FF" stroke="#D6E5FF"/><circle cx="18" cy="18" r="8" fill="#5FA8FF"/><path d="M18 13V18L21 21" stroke="#FFFFFF" stroke-width="2" stroke-linecap="round" stroke-linejoin="round"/><text x="38" y="23" fill="#2F5DB3" font-family="'IBM Plex Sans', 'Segoe UI', sans-serif" font-size="14" font-weight="700">Deploying</text></g>
  <g transform="translate(20 112)"><rect width="280" height="36" rx="14" fill="#EFFBEA" stroke="#CDEFC0"/><circle cx="18" cy="18" r="8" fill="#9AE66E"/><path d="M14 18L17 21L23 15" stroke="#0E1726" stroke-width="2" stroke-linecap="round" stroke-linejoin="round"/><text x="38" y="23" fill="#3A7C28" font-family="'IBM Plex Sans', 'Segoe UI', sans-serif" font-size="14" font-weight="700">Deployed</text></g>
  <g transform="translate(20 158)"><rect width="280" height="36" rx="14" fill="#FFF4EA" stroke="#F7DFC9"/><circle cx="18" cy="18" r="8" fill="#C96A3D"/><path d="M18 12V19" stroke="#FFFFFF" stroke-width="2" stroke-linecap="round"/><circle cx="18" cy="24" r="1.3" fill="#FFFFFF"/><text x="38" y="23" fill="#B05B33" font-family="'IBM Plex Sans', 'Segoe UI', sans-serif" font-size="14" font-weight="700">Degraded</text></g>
  <g transform="translate(20 204)"><rect width="280" height="36" rx="14" fill="#FFF0F1" stroke="#F4D4D8"/><circle cx="18" cy="18" r="8" fill="#F05B61"/><path d="M14 14L22 22M22 14L14 22" stroke="#FFFFFF" stroke-width="2" stroke-linecap="round"/><text x="38" y="23" fill="#BE3B42" font-family="'IBM Plex Sans', 'Segoe UI', sans-serif" font-size="14" font-weight="700">Error</text></g>
</svg>
